<mxfile host="drawio-plugin" modified="2023-05-25T08:45:54.838Z" agent="5.0 (Windows NT 6.2; Win64; x64) AppleWebKit/537.36 (KHTML, like Gecko) Chrome/104.0.5112.102 Safari/537.36" etag="zOBoI3NT-glyZfy_GE1l" version="20.5.3" type="embed" pages="3"><diagram id="McKockSsbGbdAj6KZK5y" name="Общая информация"><mxGraphModel dx="2145" dy="797" grid="1" gridSize="10" guides="1" tooltips="1" connect="1" arrows="1" fold="1" page="1" pageScale="1" pageWidth="827" pageHeight="1169" math="0" shadow="0"><root><mxCell id="0"/><mxCell id="1" parent="0"/><mxCell id="DeUvo8-2mxQyPgU1of1R-4" value="&lt;h1&gt;java-db-request&lt;/h1&gt;&lt;p&gt;Программная реализация сервлета для работы с запросами в БД с историй, логированием, обработкой доступа и&amp;nbsp;&lt;/p&gt;" style="text;html=1;strokeColor=none;fillColor=none;spacing=5;spacingTop=-20;whiteSpace=wrap;overflow=hidden;rounded=0;" parent="1" vertex="1"><mxGeometry x="40" y="40" width="280" height="120" as="geometry"/></mxCell><mxCell id="DeUvo8-2mxQyPgU1of1R-8" value="" style="endArrow=classic;html=1;" parent="1" edge="1"><mxGeometry relative="1" as="geometry"><mxPoint x="460" y="60" as="sourcePoint"/><mxPoint x="560" y="60" as="targetPoint"/></mxGeometry></mxCell><mxCell id="DeUvo8-2mxQyPgU1of1R-9" value="" style="shape=message;html=1;outlineConnect=0;" parent="DeUvo8-2mxQyPgU1of1R-8" vertex="1"><mxGeometry width="20" height="14" relative="1" as="geometry"><mxPoint x="-10" y="-7" as="offset"/></mxGeometry></mxCell><mxCell id="DeUvo8-2mxQyPgU1of1R-11" value="БД" style="shape=datastore;whiteSpace=wrap;html=1;" parent="1" vertex="1"><mxGeometry x="400" y="40" width="60" height="60" as="geometry"/></mxCell><mxCell id="DeUvo8-2mxQyPgU1of1R-17" value="Сервер" style="whiteSpace=wrap;html=1;aspect=fixed;" parent="1" vertex="1"><mxGeometry x="560" y="30" width="80" height="80" as="geometry"/></mxCell><mxCell id="DeUvo8-2mxQyPgU1of1R-18" value="" style="endArrow=classic;html=1;entryX=1;entryY=0.667;entryDx=0;entryDy=0;entryPerimeter=0;exitX=0;exitY=0.625;exitDx=0;exitDy=0;exitPerimeter=0;" parent="1" source="DeUvo8-2mxQyPgU1of1R-17" target="DeUvo8-2mxQyPgU1of1R-11" edge="1"><mxGeometry relative="1" as="geometry"><mxPoint x="530" y="90" as="sourcePoint"/><mxPoint x="480" y="80" as="targetPoint"/></mxGeometry></mxCell><mxCell id="DeUvo8-2mxQyPgU1of1R-19" value="" style="shape=message;html=1;outlineConnect=0;" parent="DeUvo8-2mxQyPgU1of1R-18" vertex="1"><mxGeometry width="20" height="14" relative="1" as="geometry"><mxPoint x="-10" y="-7" as="offset"/></mxGeometry></mxCell><mxCell id="DeUvo8-2mxQyPgU1of1R-20" value="Клиент" style="shape=umlActor;verticalLabelPosition=bottom;verticalAlign=top;html=1;outlineConnect=0;" parent="1" vertex="1"><mxGeometry x="740" y="30" width="30" height="60" as="geometry"/></mxCell><mxCell id="DeUvo8-2mxQyPgU1of1R-21" value="" style="endArrow=classic;html=1;" parent="1" edge="1"><mxGeometry relative="1" as="geometry"><mxPoint x="640" y="59.8" as="sourcePoint"/><mxPoint x="740" y="59.8" as="targetPoint"/></mxGeometry></mxCell><mxCell id="DeUvo8-2mxQyPgU1of1R-22" value="" style="shape=message;html=1;outlineConnect=0;" parent="DeUvo8-2mxQyPgU1of1R-21" vertex="1"><mxGeometry width="20" height="14" relative="1" as="geometry"><mxPoint x="-10" y="-7" as="offset"/></mxGeometry></mxCell><mxCell id="DeUvo8-2mxQyPgU1of1R-23" value="" style="endArrow=classic;html=1;entryX=1;entryY=0.667;entryDx=0;entryDy=0;entryPerimeter=0;exitX=0;exitY=0.625;exitDx=0;exitDy=0;exitPerimeter=0;" parent="1" edge="1"><mxGeometry relative="1" as="geometry"><mxPoint x="740" y="79.8" as="sourcePoint"/><mxPoint x="640" y="79.81999999999998" as="targetPoint"/></mxGeometry></mxCell><mxCell id="DeUvo8-2mxQyPgU1of1R-24" value="" style="shape=message;html=1;outlineConnect=0;" parent="DeUvo8-2mxQyPgU1of1R-23" vertex="1"><mxGeometry width="20" height="14" relative="1" as="geometry"><mxPoint x="-10" y="-7" as="offset"/></mxGeometry></mxCell></root></mxGraphModel></diagram><diagram id="Hh5LRQSCnKQKxlGba9ma" name="JSON параметр"><mxGraphModel dx="953" dy="354" grid="1" gridSize="5" guides="1" tooltips="1" connect="1" arrows="1" fold="1" page="1" pageScale="1" pageWidth="827" pageHeight="1169" math="0" shadow="0"><root><mxCell id="IwvrFI_Q7wZ1opefNfWX-0"/><mxCell id="IwvrFI_Q7wZ1opefNfWX-1" parent="IwvrFI_Q7wZ1opefNfWX-0"/><mxCell id="dKg5kCecvE3HBSEvpWzA-24" value="&lt;span style=&quot;text-align: left&quot;&gt;QuerySet&lt;/span&gt;" style="shape=table;html=1;whiteSpace=wrap;startSize=30;container=1;collapsible=0;childLayout=tableLayout;fixedRows=1;rowLines=0;fontStyle=1;align=center;" parent="IwvrFI_Q7wZ1opefNfWX-1" vertex="1"><mxGeometry x="320" y="40" width="200" height="210" as="geometry"/></mxCell><mxCell id="dKg5kCecvE3HBSEvpWzA-118" style="shape=partialRectangle;html=1;whiteSpace=wrap;collapsible=0;dropTarget=0;pointerEvents=0;fillColor=none;top=0;left=0;bottom=1;right=0;points=[[0,0.5],[1,0.5]];portConstraint=eastwest;" parent="dKg5kCecvE3HBSEvpWzA-24" vertex="1"><mxGeometry y="30" width="200" height="30" as="geometry"/></mxCell><mxCell id="dKg5kCecvE3HBSEvpWzA-119" value="1" style="shape=partialRectangle;html=1;whiteSpace=wrap;connectable=0;fillColor=none;top=0;left=0;bottom=0;right=0;overflow=hidden;" parent="dKg5kCecvE3HBSEvpWzA-118" vertex="1"><mxGeometry width="50" height="30" as="geometry"/></mxCell><mxCell id="dKg5kCecvE3HBSEvpWzA-120" value="&lt;span&gt;Connections&lt;/span&gt;" style="shape=partialRectangle;html=1;whiteSpace=wrap;connectable=0;fillColor=none;top=0;left=0;bottom=0;right=0;align=left;spacingLeft=6;overflow=hidden;" parent="dKg5kCecvE3HBSEvpWzA-118" vertex="1"><mxGeometry x="50" width="150" height="30" as="geometry"/></mxCell><mxCell id="dKg5kCecvE3HBSEvpWzA-88" value="" style="shape=partialRectangle;html=1;whiteSpace=wrap;collapsible=0;dropTarget=0;pointerEvents=0;fillColor=none;top=0;left=0;bottom=1;right=0;points=[[0,0.5],[1,0.5]];portConstraint=eastwest;" parent="dKg5kCecvE3HBSEvpWzA-24" vertex="1"><mxGeometry y="60" width="200" height="30" as="geometry"/></mxCell><mxCell id="dKg5kCecvE3HBSEvpWzA-89" value="2" style="shape=partialRectangle;html=1;whiteSpace=wrap;connectable=0;fillColor=none;top=0;left=0;bottom=0;right=0;overflow=hidden;" parent="dKg5kCecvE3HBSEvpWzA-88" vertex="1"><mxGeometry width="50" height="30" as="geometry"/></mxCell><mxCell id="dKg5kCecvE3HBSEvpWzA-90" value="ID" style="shape=partialRectangle;html=1;whiteSpace=wrap;connectable=0;fillColor=none;top=0;left=0;bottom=0;right=0;align=left;spacingLeft=6;overflow=hidden;" parent="dKg5kCecvE3HBSEvpWzA-88" vertex="1"><mxGeometry x="50" width="150" height="30" as="geometry"/></mxCell><mxCell id="dKg5kCecvE3HBSEvpWzA-91" value="" style="shape=partialRectangle;html=1;whiteSpace=wrap;collapsible=0;dropTarget=0;pointerEvents=0;fillColor=none;top=0;left=0;bottom=1;right=0;points=[[0,0.5],[1,0.5]];portConstraint=eastwest;" parent="dKg5kCecvE3HBSEvpWzA-24" vertex="1"><mxGeometry y="90" width="200" height="30" as="geometry"/></mxCell><mxCell id="dKg5kCecvE3HBSEvpWzA-92" value="3" style="shape=partialRectangle;html=1;whiteSpace=wrap;connectable=0;fillColor=none;top=0;left=0;bottom=0;right=0;overflow=hidden;" parent="dKg5kCecvE3HBSEvpWzA-91" vertex="1"><mxGeometry width="50" height="30" as="geometry"/></mxCell><mxCell id="dKg5kCecvE3HBSEvpWzA-93" value="RunClass" style="shape=partialRectangle;html=1;whiteSpace=wrap;connectable=0;fillColor=none;top=0;left=0;bottom=0;right=0;align=left;spacingLeft=6;overflow=hidden;" parent="dKg5kCecvE3HBSEvpWzA-91" vertex="1"><mxGeometry x="50" width="150" height="30" as="geometry"/></mxCell><mxCell id="dKg5kCecvE3HBSEvpWzA-94" value="" style="shape=partialRectangle;html=1;whiteSpace=wrap;collapsible=0;dropTarget=0;pointerEvents=0;fillColor=none;top=0;left=0;bottom=1;right=0;points=[[0,0.5],[1,0.5]];portConstraint=eastwest;" parent="dKg5kCecvE3HBSEvpWzA-24" vertex="1"><mxGeometry y="120" width="200" height="30" as="geometry"/></mxCell><mxCell id="dKg5kCecvE3HBSEvpWzA-95" value="4" style="shape=partialRectangle;html=1;whiteSpace=wrap;connectable=0;fillColor=none;top=0;left=0;bottom=0;right=0;overflow=hidden;" parent="dKg5kCecvE3HBSEvpWzA-94" vertex="1"><mxGeometry width="50" height="30" as="geometry"/></mxCell><mxCell id="dKg5kCecvE3HBSEvpWzA-96" value="ValidationToken" style="shape=partialRectangle;html=1;whiteSpace=wrap;connectable=0;fillColor=none;top=0;left=0;bottom=0;right=0;align=left;spacingLeft=6;overflow=hidden;" parent="dKg5kCecvE3HBSEvpWzA-94" vertex="1"><mxGeometry x="50" width="150" height="30" as="geometry"/></mxCell><mxCell id="dKg5kCecvE3HBSEvpWzA-97" value="" style="shape=partialRectangle;html=1;whiteSpace=wrap;collapsible=0;dropTarget=0;pointerEvents=0;fillColor=none;top=0;left=0;bottom=1;right=0;points=[[0,0.5],[1,0.5]];portConstraint=eastwest;" parent="dKg5kCecvE3HBSEvpWzA-24" vertex="1"><mxGeometry y="150" width="200" height="30" as="geometry"/></mxCell><mxCell id="dKg5kCecvE3HBSEvpWzA-98" value="5" style="shape=partialRectangle;html=1;whiteSpace=wrap;connectable=0;fillColor=none;top=0;left=0;bottom=0;right=0;overflow=hidden;" parent="dKg5kCecvE3HBSEvpWzA-97" vertex="1"><mxGeometry width="50" height="30" as="geometry"/></mxCell><mxCell id="dKg5kCecvE3HBSEvpWzA-99" value="Token" style="shape=partialRectangle;html=1;whiteSpace=wrap;connectable=0;fillColor=none;top=0;left=0;bottom=0;right=0;align=left;spacingLeft=6;overflow=hidden;" parent="dKg5kCecvE3HBSEvpWzA-97" vertex="1"><mxGeometry x="50" width="150" height="30" as="geometry"/></mxCell><mxCell id="dKg5kCecvE3HBSEvpWzA-85" value="" style="shape=partialRectangle;html=1;whiteSpace=wrap;collapsible=0;dropTarget=0;pointerEvents=0;fillColor=none;top=0;left=0;bottom=1;right=0;points=[[0,0.5],[1,0.5]];portConstraint=eastwest;" parent="dKg5kCecvE3HBSEvpWzA-24" vertex="1"><mxGeometry y="180" width="200" height="30" as="geometry"/></mxCell><mxCell id="dKg5kCecvE3HBSEvpWzA-86" value="6" style="shape=partialRectangle;html=1;whiteSpace=wrap;connectable=0;fillColor=none;top=0;left=0;bottom=0;right=0;overflow=hidden;" parent="dKg5kCecvE3HBSEvpWzA-85" vertex="1"><mxGeometry width="50" height="30" as="geometry"/></mxCell><mxCell id="dKg5kCecvE3HBSEvpWzA-87" value="Queries" style="shape=partialRectangle;html=1;whiteSpace=wrap;connectable=0;fillColor=none;top=0;left=0;bottom=0;right=0;align=left;spacingLeft=6;overflow=hidden;" parent="dKg5kCecvE3HBSEvpWzA-85" vertex="1"><mxGeometry x="50" width="150" height="30" as="geometry"/></mxCell><mxCell id="dKg5kCecvE3HBSEvpWzA-124" value="&lt;span style=&quot;text-align: left&quot;&gt;Queries&lt;/span&gt;" style="shape=table;html=1;whiteSpace=wrap;startSize=30;container=1;collapsible=0;childLayout=tableLayout;fixedRows=1;rowLines=0;fontStyle=1;align=center;" parent="IwvrFI_Q7wZ1opefNfWX-1" vertex="1"><mxGeometry x="590" y="220" width="200" height="210" as="geometry"/></mxCell><mxCell id="dKg5kCecvE3HBSEvpWzA-125" style="shape=partialRectangle;html=1;whiteSpace=wrap;collapsible=0;dropTarget=0;pointerEvents=0;fillColor=none;top=0;left=0;bottom=1;right=0;points=[[0,0.5],[1,0.5]];portConstraint=eastwest;" parent="dKg5kCecvE3HBSEvpWzA-124" vertex="1"><mxGeometry y="30" width="200" height="30" as="geometry"/></mxCell><mxCell id="dKg5kCecvE3HBSEvpWzA-126" value="1" style="shape=partialRectangle;html=1;whiteSpace=wrap;connectable=0;fillColor=none;top=0;left=0;bottom=0;right=0;overflow=hidden;" parent="dKg5kCecvE3HBSEvpWzA-125" vertex="1"><mxGeometry width="50" height="30" as="geometry"/></mxCell><mxCell id="dKg5kCecvE3HBSEvpWzA-127" value="ID" style="shape=partialRectangle;html=1;whiteSpace=wrap;connectable=0;fillColor=none;top=0;left=0;bottom=0;right=0;align=left;spacingLeft=6;overflow=hidden;" parent="dKg5kCecvE3HBSEvpWzA-125" vertex="1"><mxGeometry x="50" width="150" height="30" as="geometry"/></mxCell><mxCell id="dKg5kCecvE3HBSEvpWzA-128" value="" style="shape=partialRectangle;html=1;whiteSpace=wrap;collapsible=0;dropTarget=0;pointerEvents=0;fillColor=none;top=0;left=0;bottom=1;right=0;points=[[0,0.5],[1,0.5]];portConstraint=eastwest;" parent="dKg5kCecvE3HBSEvpWzA-124" vertex="1"><mxGeometry y="60" width="200" height="30" as="geometry"/></mxCell><mxCell id="dKg5kCecvE3HBSEvpWzA-129" value="2" style="shape=partialRectangle;html=1;whiteSpace=wrap;connectable=0;fillColor=none;top=0;left=0;bottom=0;right=0;overflow=hidden;" parent="dKg5kCecvE3HBSEvpWzA-128" vertex="1"><mxGeometry width="50" height="30" as="geometry"/></mxCell><mxCell id="dKg5kCecvE3HBSEvpWzA-130" value="SQL" style="shape=partialRectangle;html=1;whiteSpace=wrap;connectable=0;fillColor=none;top=0;left=0;bottom=0;right=0;align=left;spacingLeft=6;overflow=hidden;" parent="dKg5kCecvE3HBSEvpWzA-128" vertex="1"><mxGeometry x="50" width="150" height="30" as="geometry"/></mxCell><mxCell id="dKg5kCecvE3HBSEvpWzA-131" value="" style="shape=partialRectangle;html=1;whiteSpace=wrap;collapsible=0;dropTarget=0;pointerEvents=0;fillColor=none;top=0;left=0;bottom=1;right=0;points=[[0,0.5],[1,0.5]];portConstraint=eastwest;" parent="dKg5kCecvE3HBSEvpWzA-124" vertex="1"><mxGeometry y="90" width="200" height="30" as="geometry"/></mxCell><mxCell id="dKg5kCecvE3HBSEvpWzA-132" value="3" style="shape=partialRectangle;html=1;whiteSpace=wrap;connectable=0;fillColor=none;top=0;left=0;bottom=0;right=0;overflow=hidden;" parent="dKg5kCecvE3HBSEvpWzA-131" vertex="1"><mxGeometry width="50" height="30" as="geometry"/></mxCell><mxCell id="dKg5kCecvE3HBSEvpWzA-133" value="Parametrs" style="shape=partialRectangle;html=1;whiteSpace=wrap;connectable=0;fillColor=none;top=0;left=0;bottom=0;right=0;align=left;spacingLeft=6;overflow=hidden;" parent="dKg5kCecvE3HBSEvpWzA-131" vertex="1"><mxGeometry x="50" width="150" height="30" as="geometry"/></mxCell><mxCell id="dKg5kCecvE3HBSEvpWzA-134" value="" style="shape=partialRectangle;html=1;whiteSpace=wrap;collapsible=0;dropTarget=0;pointerEvents=0;fillColor=none;top=0;left=0;bottom=1;right=0;points=[[0,0.5],[1,0.5]];portConstraint=eastwest;" parent="dKg5kCecvE3HBSEvpWzA-124" vertex="1"><mxGeometry y="120" width="200" height="30" as="geometry"/></mxCell><mxCell id="dKg5kCecvE3HBSEvpWzA-135" value="4" style="shape=partialRectangle;html=1;whiteSpace=wrap;connectable=0;fillColor=none;top=0;left=0;bottom=0;right=0;overflow=hidden;" parent="dKg5kCecvE3HBSEvpWzA-134" vertex="1"><mxGeometry width="50" height="30" as="geometry"/></mxCell><mxCell id="dKg5kCecvE3HBSEvpWzA-136" value="ValidationTokenQueries&amp;nbsp;" style="shape=partialRectangle;html=1;whiteSpace=wrap;connectable=0;fillColor=none;top=0;left=0;bottom=0;right=0;align=left;spacingLeft=6;overflow=hidden;" parent="dKg5kCecvE3HBSEvpWzA-134" vertex="1"><mxGeometry x="50" width="150" height="30" as="geometry"/></mxCell><mxCell id="dKg5kCecvE3HBSEvpWzA-137" value="" style="shape=partialRectangle;html=1;whiteSpace=wrap;collapsible=0;dropTarget=0;pointerEvents=0;fillColor=none;top=0;left=0;bottom=1;right=0;points=[[0,0.5],[1,0.5]];portConstraint=eastwest;" parent="dKg5kCecvE3HBSEvpWzA-124" vertex="1"><mxGeometry y="150" width="200" height="30" as="geometry"/></mxCell><mxCell id="dKg5kCecvE3HBSEvpWzA-138" value="5" style="shape=partialRectangle;html=1;whiteSpace=wrap;connectable=0;fillColor=none;top=0;left=0;bottom=0;right=0;overflow=hidden;" parent="dKg5kCecvE3HBSEvpWzA-137" vertex="1"><mxGeometry width="50" height="30" as="geometry"/></mxCell><mxCell id="dKg5kCecvE3HBSEvpWzA-139" value="Token" style="shape=partialRectangle;html=1;whiteSpace=wrap;connectable=0;fillColor=none;top=0;left=0;bottom=0;right=0;align=left;spacingLeft=6;overflow=hidden;" parent="dKg5kCecvE3HBSEvpWzA-137" vertex="1"><mxGeometry x="50" width="150" height="30" as="geometry"/></mxCell><mxCell id="mKy292UG_CkP-0T25i01-0" style="shape=partialRectangle;html=1;whiteSpace=wrap;collapsible=0;dropTarget=0;pointerEvents=0;fillColor=none;top=0;left=0;bottom=1;right=0;points=[[0,0.5],[1,0.5]];portConstraint=eastwest;" parent="dKg5kCecvE3HBSEvpWzA-124" vertex="1"><mxGeometry y="180" width="200" height="30" as="geometry"/></mxCell><mxCell id="mKy292UG_CkP-0T25i01-1" value="6" style="shape=partialRectangle;html=1;whiteSpace=wrap;connectable=0;fillColor=none;top=0;left=0;bottom=0;right=0;overflow=hidden;" parent="mKy292UG_CkP-0T25i01-0" vertex="1"><mxGeometry width="50" height="30" as="geometry"/></mxCell><mxCell id="mKy292UG_CkP-0T25i01-2" value="Async" style="shape=partialRectangle;html=1;whiteSpace=wrap;connectable=0;fillColor=none;top=0;left=0;bottom=0;right=0;align=left;spacingLeft=6;overflow=hidden;" parent="mKy292UG_CkP-0T25i01-0" vertex="1"><mxGeometry x="50" width="150" height="30" as="geometry"/></mxCell><mxCell id="dKg5kCecvE3HBSEvpWzA-168" value="&lt;span style=&quot;text-align: left&quot;&gt;Parametrs&lt;/span&gt;" style="shape=table;html=1;whiteSpace=wrap;startSize=30;container=1;collapsible=0;childLayout=tableLayout;fixedRows=1;rowLines=0;fontStyle=1;align=center;rounded=0;sketch=0;" parent="IwvrFI_Q7wZ1opefNfWX-1" vertex="1"><mxGeometry x="320" y="310" width="200" height="210" as="geometry"/></mxCell><mxCell id="dKg5kCecvE3HBSEvpWzA-169" style="shape=partialRectangle;html=1;whiteSpace=wrap;collapsible=0;dropTarget=0;pointerEvents=0;fillColor=none;top=0;left=0;bottom=1;right=0;points=[[0,0.5],[1,0.5]];portConstraint=eastwest;" parent="dKg5kCecvE3HBSEvpWzA-168" vertex="1"><mxGeometry y="30" width="200" height="30" as="geometry"/></mxCell><mxCell id="dKg5kCecvE3HBSEvpWzA-170" value="1" style="shape=partialRectangle;html=1;whiteSpace=wrap;connectable=0;fillColor=none;top=0;left=0;bottom=0;right=0;overflow=hidden;" parent="dKg5kCecvE3HBSEvpWzA-169" vertex="1"><mxGeometry width="50" height="30" as="geometry"/></mxCell><mxCell id="dKg5kCecvE3HBSEvpWzA-171" value="ID" style="shape=partialRectangle;html=1;whiteSpace=wrap;connectable=0;fillColor=none;top=0;left=0;bottom=0;right=0;align=left;spacingLeft=6;overflow=hidden;" parent="dKg5kCecvE3HBSEvpWzA-169" vertex="1"><mxGeometry x="50" width="150" height="30" as="geometry"/></mxCell><mxCell id="dKg5kCecvE3HBSEvpWzA-172" value="" style="shape=partialRectangle;html=1;whiteSpace=wrap;collapsible=0;dropTarget=0;pointerEvents=0;fillColor=none;top=0;left=0;bottom=1;right=0;points=[[0,0.5],[1,0.5]];portConstraint=eastwest;" parent="dKg5kCecvE3HBSEvpWzA-168" vertex="1"><mxGeometry y="60" width="200" height="30" as="geometry"/></mxCell><mxCell id="dKg5kCecvE3HBSEvpWzA-173" value="2" style="shape=partialRectangle;html=1;whiteSpace=wrap;connectable=0;fillColor=none;top=0;left=0;bottom=0;right=0;overflow=hidden;" parent="dKg5kCecvE3HBSEvpWzA-172" vertex="1"><mxGeometry width="50" height="30" as="geometry"/></mxCell><mxCell id="dKg5kCecvE3HBSEvpWzA-174" value="SQL" style="shape=partialRectangle;html=1;whiteSpace=wrap;connectable=0;fillColor=none;top=0;left=0;bottom=0;right=0;align=left;spacingLeft=6;overflow=hidden;" parent="dKg5kCecvE3HBSEvpWzA-172" vertex="1"><mxGeometry x="50" width="150" height="30" as="geometry"/></mxCell><mxCell id="dKg5kCecvE3HBSEvpWzA-175" value="" style="shape=partialRectangle;html=1;whiteSpace=wrap;collapsible=0;dropTarget=0;pointerEvents=0;fillColor=none;top=0;left=0;bottom=1;right=0;points=[[0,0.5],[1,0.5]];portConstraint=eastwest;" parent="dKg5kCecvE3HBSEvpWzA-168" vertex="1"><mxGeometry y="90" width="200" height="30" as="geometry"/></mxCell><mxCell id="dKg5kCecvE3HBSEvpWzA-176" value="3" style="shape=partialRectangle;html=1;whiteSpace=wrap;connectable=0;fillColor=none;top=0;left=0;bottom=0;right=0;overflow=hidden;" parent="dKg5kCecvE3HBSEvpWzA-175" vertex="1"><mxGeometry width="50" height="30" as="geometry"/></mxCell><mxCell id="dKg5kCecvE3HBSEvpWzA-177" value="Raw" style="shape=partialRectangle;html=1;whiteSpace=wrap;connectable=0;fillColor=none;top=0;left=0;bottom=0;right=0;align=left;spacingLeft=6;overflow=hidden;" parent="dKg5kCecvE3HBSEvpWzA-175" vertex="1"><mxGeometry x="50" width="150" height="30" as="geometry"/></mxCell><mxCell id="6SrOuIUhevdtCjDVSOOR-35" style="shape=partialRectangle;html=1;whiteSpace=wrap;collapsible=0;dropTarget=0;pointerEvents=0;fillColor=none;top=0;left=0;bottom=1;right=0;points=[[0,0.5],[1,0.5]];portConstraint=eastwest;" parent="dKg5kCecvE3HBSEvpWzA-168" vertex="1"><mxGeometry y="120" width="200" height="30" as="geometry"/></mxCell><mxCell id="6SrOuIUhevdtCjDVSOOR-36" value="4" style="shape=partialRectangle;html=1;whiteSpace=wrap;connectable=0;fillColor=none;top=0;left=0;bottom=0;right=0;overflow=hidden;" parent="6SrOuIUhevdtCjDVSOOR-35" vertex="1"><mxGeometry width="50" height="30" as="geometry"/></mxCell><mxCell id="6SrOuIUhevdtCjDVSOOR-37" value="When" style="shape=partialRectangle;html=1;whiteSpace=wrap;connectable=0;fillColor=none;top=0;left=0;bottom=0;right=0;align=left;spacingLeft=6;overflow=hidden;" parent="6SrOuIUhevdtCjDVSOOR-35" vertex="1"><mxGeometry x="50" width="150" height="30" as="geometry"/></mxCell><mxCell id="dKg5kCecvE3HBSEvpWzA-178" value="" style="shape=partialRectangle;html=1;whiteSpace=wrap;collapsible=0;dropTarget=0;pointerEvents=0;fillColor=none;top=0;left=0;bottom=1;right=0;points=[[0,0.5],[1,0.5]];portConstraint=eastwest;" parent="dKg5kCecvE3HBSEvpWzA-168" vertex="1"><mxGeometry y="150" width="200" height="30" as="geometry"/></mxCell><mxCell id="dKg5kCecvE3HBSEvpWzA-179" value="5" style="shape=partialRectangle;html=1;whiteSpace=wrap;connectable=0;fillColor=none;top=0;left=0;bottom=0;right=0;overflow=hidden;" parent="dKg5kCecvE3HBSEvpWzA-178" vertex="1"><mxGeometry width="50" height="30" as="geometry"/></mxCell><mxCell id="dKg5kCecvE3HBSEvpWzA-180" value="Name" style="shape=partialRectangle;html=1;whiteSpace=wrap;connectable=0;fillColor=none;top=0;left=0;bottom=0;right=0;align=left;spacingLeft=6;overflow=hidden;" parent="dKg5kCecvE3HBSEvpWzA-178" vertex="1"><mxGeometry x="50" width="150" height="30" as="geometry"/></mxCell><mxCell id="6SrOuIUhevdtCjDVSOOR-29" style="shape=partialRectangle;html=1;whiteSpace=wrap;collapsible=0;dropTarget=0;pointerEvents=0;fillColor=none;top=0;left=0;bottom=1;right=0;points=[[0,0.5],[1,0.5]];portConstraint=eastwest;" parent="dKg5kCecvE3HBSEvpWzA-168" vertex="1"><mxGeometry y="180" width="200" height="30" as="geometry"/></mxCell><mxCell id="6SrOuIUhevdtCjDVSOOR-30" value="6" style="shape=partialRectangle;html=1;whiteSpace=wrap;connectable=0;fillColor=none;top=0;left=0;bottom=0;right=0;overflow=hidden;" parent="6SrOuIUhevdtCjDVSOOR-29" vertex="1"><mxGeometry width="50" height="30" as="geometry"/></mxCell><mxCell id="6SrOuIUhevdtCjDVSOOR-31" value="Index" style="shape=partialRectangle;html=1;whiteSpace=wrap;connectable=0;fillColor=none;top=0;left=0;bottom=0;right=0;align=left;spacingLeft=6;overflow=hidden;" parent="6SrOuIUhevdtCjDVSOOR-29" vertex="1"><mxGeometry x="50" width="150" height="30" as="geometry"/></mxCell><mxCell id="dKg5kCecvE3HBSEvpWzA-208" style="edgeStyle=orthogonalEdgeStyle;rounded=0;orthogonalLoop=1;jettySize=auto;html=1;exitX=0;exitY=0.5;exitDx=0;exitDy=0;entryX=1.006;entryY=0.083;entryDx=0;entryDy=0;entryPerimeter=0;" parent="IwvrFI_Q7wZ1opefNfWX-1" source="dKg5kCecvE3HBSEvpWzA-131" target="dKg5kCecvE3HBSEvpWzA-168" edge="1"><mxGeometry relative="1" as="geometry"><mxPoint x="530" y="327" as="targetPoint"/><Array as="points"><mxPoint x="590" y="327"/><mxPoint x="530" y="327"/></Array></mxGeometry></mxCell><mxCell id="dKg5kCecvE3HBSEvpWzA-228" value="" style="endArrow=classic;html=1;entryX=0;entryY=0.095;entryDx=0;entryDy=0;entryPerimeter=0;" parent="IwvrFI_Q7wZ1opefNfWX-1" target="dKg5kCecvE3HBSEvpWzA-124" edge="1"><mxGeometry width="50" height="50" relative="1" as="geometry"><mxPoint x="520" y="240" as="sourcePoint"/><mxPoint x="570" y="240" as="targetPoint"/><Array as="points"/></mxGeometry></mxCell><mxCell id="dKg5kCecvE3HBSEvpWzA-230" value="" style="rounded=0;whiteSpace=wrap;html=1;fillColor=#dae8fc;strokeColor=#6c8ebf;" parent="IwvrFI_Q7wZ1opefNfWX-1" vertex="1"><mxGeometry width="280" height="160" as="geometry"/></mxCell><mxCell id="dKg5kCecvE3HBSEvpWzA-229" value="В запросе (POST, GET)" style="text;html=1;strokeColor=none;fillColor=none;align=center;verticalAlign=middle;whiteSpace=wrap;rounded=0;" parent="IwvrFI_Q7wZ1opefNfWX-1" vertex="1"><mxGeometry x="70" y="10" width="140" height="20" as="geometry"/></mxCell><mxCell id="dKg5kCecvE3HBSEvpWzA-241" value="" style="rounded=0;whiteSpace=wrap;html=1;sketch=0;strokeColor=#000000;strokeWidth=3;fillColor=#ffffff;gradientColor=none;" parent="IwvrFI_Q7wZ1opefNfWX-1" vertex="1"><mxGeometry x="50" y="40" width="180" height="90" as="geometry"/></mxCell><mxCell id="dKg5kCecvE3HBSEvpWzA-231" value="QuerySet" style="shape=table;html=1;whiteSpace=wrap;startSize=30;container=1;collapsible=0;childLayout=tableLayout;fixedRows=1;rowLines=0;fontStyle=1;align=center;rounded=0;sketch=0;strokeColor=#000000;fillColor=#ffffff;" parent="IwvrFI_Q7wZ1opefNfWX-1" vertex="1"><mxGeometry x="50" y="40" width="180" height="90" as="geometry"/></mxCell><mxCell id="dKg5kCecvE3HBSEvpWzA-232" value="" style="shape=partialRectangle;html=1;whiteSpace=wrap;collapsible=0;dropTarget=0;pointerEvents=0;fillColor=none;top=0;left=0;bottom=1;right=0;points=[[0,0.5],[1,0.5]];portConstraint=eastwest;" parent="dKg5kCecvE3HBSEvpWzA-231" vertex="1"><mxGeometry y="30" width="180" height="30" as="geometry"/></mxCell><mxCell id="dKg5kCecvE3HBSEvpWzA-233" value="1" style="shape=partialRectangle;html=1;whiteSpace=wrap;connectable=0;fillColor=none;top=0;left=0;bottom=0;right=0;overflow=hidden;" parent="dKg5kCecvE3HBSEvpWzA-232" vertex="1"><mxGeometry width="40" height="30" as="geometry"/></mxCell><mxCell id="dKg5kCecvE3HBSEvpWzA-234" value="File" style="shape=partialRectangle;html=1;whiteSpace=wrap;connectable=0;top=0;left=0;bottom=0;right=0;align=left;spacingLeft=6;overflow=hidden;fillColor=none;" parent="dKg5kCecvE3HBSEvpWzA-232" vertex="1"><mxGeometry x="40" width="140" height="30" as="geometry"/></mxCell><mxCell id="dKg5kCecvE3HBSEvpWzA-235" value="" style="shape=partialRectangle;html=1;whiteSpace=wrap;collapsible=0;dropTarget=0;pointerEvents=0;fillColor=none;top=0;left=0;bottom=0;right=0;points=[[0,0.5],[1,0.5]];portConstraint=eastwest;" parent="dKg5kCecvE3HBSEvpWzA-231" vertex="1"><mxGeometry y="60" width="180" height="30" as="geometry"/></mxCell><mxCell id="dKg5kCecvE3HBSEvpWzA-236" value="2" style="shape=partialRectangle;html=1;whiteSpace=wrap;connectable=0;fillColor=none;top=0;left=0;bottom=0;right=0;overflow=hidden;" parent="dKg5kCecvE3HBSEvpWzA-235" vertex="1"><mxGeometry width="40" height="30" as="geometry"/></mxCell><mxCell id="dKg5kCecvE3HBSEvpWzA-237" value="ID" style="shape=partialRectangle;html=1;whiteSpace=wrap;connectable=0;fillColor=none;top=0;left=0;bottom=0;right=0;align=left;spacingLeft=6;overflow=hidden;" parent="dKg5kCecvE3HBSEvpWzA-235" vertex="1"><mxGeometry x="40" width="140" height="30" as="geometry"/></mxCell><mxCell id="6SrOuIUhevdtCjDVSOOR-16" value="" style="rounded=0;whiteSpace=wrap;html=1;fillColor=#dae8fc;strokeColor=#6c8ebf;" parent="IwvrFI_Q7wZ1opefNfWX-1" vertex="1"><mxGeometry y="300" width="280" height="160" as="geometry"/></mxCell><mxCell id="6SrOuIUhevdtCjDVSOOR-17" value="В запросе (POST, GET)" style="text;html=1;strokeColor=none;fillColor=none;align=center;verticalAlign=middle;whiteSpace=wrap;rounded=0;" parent="IwvrFI_Q7wZ1opefNfWX-1" vertex="1"><mxGeometry x="70" y="310" width="140" height="20" as="geometry"/></mxCell><mxCell id="6SrOuIUhevdtCjDVSOOR-18" value="" style="rounded=0;whiteSpace=wrap;html=1;sketch=0;strokeColor=#000000;strokeWidth=3;fillColor=#ffffff;gradientColor=none;" parent="IwvrFI_Q7wZ1opefNfWX-1" vertex="1"><mxGeometry x="50" y="340" width="180" height="90" as="geometry"/></mxCell><mxCell id="6SrOuIUhevdtCjDVSOOR-19" value="&lt;span style=&quot;text-align: left&quot;&gt;Parametrs&lt;/span&gt;" style="shape=table;html=1;whiteSpace=wrap;startSize=30;container=1;collapsible=0;childLayout=tableLayout;fixedRows=1;rowLines=0;fontStyle=1;align=center;rounded=0;sketch=0;strokeColor=#000000;fillColor=#ffffff;" parent="IwvrFI_Q7wZ1opefNfWX-1" vertex="1"><mxGeometry x="50" y="340" width="180" height="90" as="geometry"/></mxCell><mxCell id="6SrOuIUhevdtCjDVSOOR-20" value="" style="shape=partialRectangle;html=1;whiteSpace=wrap;collapsible=0;dropTarget=0;pointerEvents=0;fillColor=none;top=0;left=0;bottom=1;right=0;points=[[0,0.5],[1,0.5]];portConstraint=eastwest;" parent="6SrOuIUhevdtCjDVSOOR-19" vertex="1"><mxGeometry y="30" width="180" height="30" as="geometry"/></mxCell><mxCell id="6SrOuIUhevdtCjDVSOOR-21" value="1" style="shape=partialRectangle;html=1;whiteSpace=wrap;connectable=0;fillColor=none;top=0;left=0;bottom=0;right=0;overflow=hidden;" parent="6SrOuIUhevdtCjDVSOOR-20" vertex="1"><mxGeometry width="40" height="30" as="geometry"/></mxCell><mxCell id="6SrOuIUhevdtCjDVSOOR-22" value="ID" style="shape=partialRectangle;html=1;whiteSpace=wrap;connectable=0;top=0;left=0;bottom=0;right=0;align=left;spacingLeft=6;overflow=hidden;fillColor=none;" parent="6SrOuIUhevdtCjDVSOOR-20" vertex="1"><mxGeometry x="40" width="140" height="30" as="geometry"/></mxCell><mxCell id="6SrOuIUhevdtCjDVSOOR-23" value="" style="shape=partialRectangle;html=1;whiteSpace=wrap;collapsible=0;dropTarget=0;pointerEvents=0;fillColor=none;top=0;left=0;bottom=0;right=0;points=[[0,0.5],[1,0.5]];portConstraint=eastwest;" parent="6SrOuIUhevdtCjDVSOOR-19" vertex="1"><mxGeometry y="60" width="180" height="30" as="geometry"/></mxCell><mxCell id="6SrOuIUhevdtCjDVSOOR-24" value="2" style="shape=partialRectangle;html=1;whiteSpace=wrap;connectable=0;fillColor=none;top=0;left=0;bottom=0;right=0;overflow=hidden;" parent="6SrOuIUhevdtCjDVSOOR-23" vertex="1"><mxGeometry width="40" height="30" as="geometry"/></mxCell><mxCell id="6SrOuIUhevdtCjDVSOOR-25" value="Raw" style="shape=partialRectangle;html=1;whiteSpace=wrap;connectable=0;fillColor=none;top=0;left=0;bottom=0;right=0;align=left;spacingLeft=6;overflow=hidden;" parent="6SrOuIUhevdtCjDVSOOR-23" vertex="1"><mxGeometry x="40" width="140" height="30" as="geometry"/></mxCell><mxCell id="6SrOuIUhevdtCjDVSOOR-26" value="" style="endArrow=classic;html=1;exitX=0.997;exitY=0.193;exitDx=0;exitDy=0;exitPerimeter=0;entryX=0;entryY=0.067;entryDx=0;entryDy=0;entryPerimeter=0;" parent="IwvrFI_Q7wZ1opefNfWX-1" source="6SrOuIUhevdtCjDVSOOR-18" target="dKg5kCecvE3HBSEvpWzA-168" edge="1"><mxGeometry width="50" height="50" relative="1" as="geometry"><mxPoint x="290" y="540" as="sourcePoint"/><mxPoint x="340" y="490" as="targetPoint"/><Array as="points"><mxPoint x="290" y="357"/><mxPoint x="290" y="324"/></Array></mxGeometry></mxCell><mxCell id="6SrOuIUhevdtCjDVSOOR-28" value="" style="endArrow=classic;html=1;exitX=1.001;exitY=0.175;exitDx=0;exitDy=0;exitPerimeter=0;entryX=0;entryY=0.075;entryDx=0;entryDy=0;entryPerimeter=0;" parent="IwvrFI_Q7wZ1opefNfWX-1" source="dKg5kCecvE3HBSEvpWzA-241" target="dKg5kCecvE3HBSEvpWzA-24" edge="1"><mxGeometry width="50" height="50" relative="1" as="geometry"><mxPoint x="300" y="60" as="sourcePoint"/><mxPoint x="350" y="10" as="targetPoint"/></mxGeometry></mxCell><mxCell id="6SrOuIUhevdtCjDVSOOR-38" value="" style="endArrow=classic;html=1;exitX=1.001;exitY=0.175;exitDx=0;exitDy=0;exitPerimeter=0;entryX=0;entryY=0.075;entryDx=0;entryDy=0;entryPerimeter=0;" parent="IwvrFI_Q7wZ1opefNfWX-1" edge="1"><mxGeometry width="50" height="50" relative="1" as="geometry"><mxPoint x="230.17999999999995" y="115" as="sourcePoint"/><mxPoint x="320.0000000000001" y="115" as="targetPoint"/></mxGeometry></mxCell><mxCell id="6SrOuIUhevdtCjDVSOOR-39" value="" style="endArrow=classic;html=1;exitX=1.001;exitY=0.175;exitDx=0;exitDy=0;exitPerimeter=0;entryX=0;entryY=0.075;entryDx=0;entryDy=0;entryPerimeter=0;" parent="IwvrFI_Q7wZ1opefNfWX-1" edge="1"><mxGeometry width="50" height="50" relative="1" as="geometry"><mxPoint x="230.17999999999995" y="414.8" as="sourcePoint"/><mxPoint x="320.0000000000002" y="414.8" as="targetPoint"/></mxGeometry></mxCell><mxCell id="6SrOuIUhevdtCjDVSOOR-40" value="" style="endArrow=classic;html=1;exitX=0.997;exitY=0.193;exitDx=0;exitDy=0;exitPerimeter=0;entryX=0;entryY=0.067;entryDx=0;entryDy=0;entryPerimeter=0;" parent="IwvrFI_Q7wZ1opefNfWX-1" edge="1"><mxGeometry width="50" height="50" relative="1" as="geometry"><mxPoint x="229.46000000000004" y="388.37" as="sourcePoint"/><mxPoint x="320" y="355.06999999999994" as="targetPoint"/><Array as="points"><mxPoint x="290" y="388"/><mxPoint x="290" y="355"/></Array></mxGeometry></mxCell><mxCell id="WMNLXES4cgH0aAiksSWf-0" value="" style="rounded=0;whiteSpace=wrap;html=1;fillColor=#fad7ac;strokeColor=#b46504;" parent="IwvrFI_Q7wZ1opefNfWX-1" vertex="1"><mxGeometry x="535" y="40" width="280" height="160" as="geometry"/></mxCell><mxCell id="WMNLXES4cgH0aAiksSWf-1" value="В фале конфигурации&amp;nbsp;" style="text;html=1;strokeColor=none;fillColor=none;align=center;verticalAlign=middle;whiteSpace=wrap;rounded=0;" parent="IwvrFI_Q7wZ1opefNfWX-1" vertex="1"><mxGeometry x="600" y="45" width="140" height="20" as="geometry"/></mxCell><mxCell id="WMNLXES4cgH0aAiksSWf-2" value="" style="rounded=0;whiteSpace=wrap;html=1;sketch=0;strokeColor=#000000;strokeWidth=3;fillColor=#ffffff;gradientColor=none;" parent="IwvrFI_Q7wZ1opefNfWX-1" vertex="1"><mxGeometry x="580" y="70" width="180" height="120" as="geometry"/></mxCell><mxCell id="WMNLXES4cgH0aAiksSWf-3" value="&lt;span style=&quot;text-align: left&quot;&gt;Connections&lt;/span&gt;" style="shape=table;html=1;whiteSpace=wrap;startSize=30;container=1;collapsible=0;childLayout=tableLayout;fixedRows=1;rowLines=0;fontStyle=1;align=center;rounded=0;sketch=0;strokeColor=#000000;fillColor=#ffffff;" parent="IwvrFI_Q7wZ1opefNfWX-1" vertex="1"><mxGeometry x="580" y="70" width="180" height="120" as="geometry"/></mxCell><mxCell id="WMNLXES4cgH0aAiksSWf-4" value="" style="shape=partialRectangle;html=1;whiteSpace=wrap;collapsible=0;dropTarget=0;pointerEvents=0;fillColor=none;top=0;left=0;bottom=1;right=0;points=[[0,0.5],[1,0.5]];portConstraint=eastwest;" parent="WMNLXES4cgH0aAiksSWf-3" vertex="1"><mxGeometry y="30" width="180" height="30" as="geometry"/></mxCell><mxCell id="WMNLXES4cgH0aAiksSWf-5" value="1" style="shape=partialRectangle;html=1;whiteSpace=wrap;connectable=0;fillColor=none;top=0;left=0;bottom=0;right=0;overflow=hidden;" parent="WMNLXES4cgH0aAiksSWf-4" vertex="1"><mxGeometry width="40" height="30" as="geometry"/></mxCell><mxCell id="WMNLXES4cgH0aAiksSWf-6" value="URL" style="shape=partialRectangle;html=1;whiteSpace=wrap;connectable=0;top=0;left=0;bottom=0;right=0;align=left;spacingLeft=6;overflow=hidden;fillColor=none;" parent="WMNLXES4cgH0aAiksSWf-4" vertex="1"><mxGeometry x="40" width="140" height="30" as="geometry"/></mxCell><mxCell id="WMNLXES4cgH0aAiksSWf-16" style="shape=partialRectangle;html=1;whiteSpace=wrap;collapsible=0;dropTarget=0;pointerEvents=0;fillColor=none;top=0;left=0;bottom=1;right=0;points=[[0,0.5],[1,0.5]];portConstraint=eastwest;" parent="WMNLXES4cgH0aAiksSWf-3" vertex="1"><mxGeometry y="60" width="180" height="30" as="geometry"/></mxCell><mxCell id="WMNLXES4cgH0aAiksSWf-17" value="&lt;span&gt;2&lt;/span&gt;" style="shape=partialRectangle;html=1;whiteSpace=wrap;connectable=0;fillColor=none;top=0;left=0;bottom=0;right=0;overflow=hidden;" parent="WMNLXES4cgH0aAiksSWf-16" vertex="1"><mxGeometry width="40" height="30" as="geometry"/></mxCell><mxCell id="WMNLXES4cgH0aAiksSWf-18" value="&lt;span&gt;User&lt;/span&gt;" style="shape=partialRectangle;html=1;whiteSpace=wrap;connectable=0;top=0;left=0;bottom=0;right=0;align=left;spacingLeft=6;overflow=hidden;fillColor=none;" parent="WMNLXES4cgH0aAiksSWf-16" vertex="1"><mxGeometry x="40" width="140" height="30" as="geometry"/></mxCell><mxCell id="WMNLXES4cgH0aAiksSWf-7" value="" style="shape=partialRectangle;html=1;whiteSpace=wrap;collapsible=0;dropTarget=0;pointerEvents=0;fillColor=none;top=0;left=0;bottom=0;right=0;points=[[0,0.5],[1,0.5]];portConstraint=eastwest;" parent="WMNLXES4cgH0aAiksSWf-3" vertex="1"><mxGeometry y="90" width="180" height="30" as="geometry"/></mxCell><mxCell id="WMNLXES4cgH0aAiksSWf-8" value="3" style="shape=partialRectangle;html=1;whiteSpace=wrap;connectable=0;fillColor=none;top=0;left=0;bottom=0;right=0;overflow=hidden;" parent="WMNLXES4cgH0aAiksSWf-7" vertex="1"><mxGeometry width="40" height="30" as="geometry"/></mxCell><mxCell id="WMNLXES4cgH0aAiksSWf-9" value="Password" style="shape=partialRectangle;html=1;whiteSpace=wrap;connectable=0;fillColor=none;top=0;left=0;bottom=0;right=0;align=left;spacingLeft=6;overflow=hidden;" parent="WMNLXES4cgH0aAiksSWf-7" vertex="1"><mxGeometry x="40" width="140" height="30" as="geometry"/></mxCell><mxCell id="WMNLXES4cgH0aAiksSWf-19" value="" style="endArrow=classic;html=1;exitX=1.001;exitY=0.175;exitDx=0;exitDy=0;exitPerimeter=0;" parent="IwvrFI_Q7wZ1opefNfWX-1" edge="1"><mxGeometry width="50" height="50" relative="1" as="geometry"><mxPoint x="519.9999999999998" y="84.71000000000001" as="sourcePoint"/><mxPoint x="580" y="85" as="targetPoint"/></mxGeometry></mxCell></root></mxGraphModel></diagram><diagram id="P8Y18dmKb4NVAvNb2o7A" name="База данных"><mxGraphModel dx="2145" dy="797" grid="1" gridSize="10" guides="1" tooltips="1" connect="1" arrows="1" fold="1" page="1" pageScale="1" pageWidth="827" pageHeight="1169" math="0" shadow="0"><root><mxCell id="f0QHR54XAe5SnRsA8c2V-0"/><mxCell id="f0QHR54XAe5SnRsA8c2V-1" parent="f0QHR54XAe5SnRsA8c2V-0"/></root></mxGraphModel></diagram></mxfile>